<svg xmlns="http://www.w3.org/2000/svg" version="1.1" xmlns:xlink="http://www.w3.org/1999/xlink" xmlns:svgjs="http://svgjs.com/svgjs" width="512" height="512" x="0" y="0" viewBox="0 0 64 64" style="enable-background:new 0 0 512 512" xml:space="preserve" class="hovered-paths"><g><path fill="#f4a93c" d="M40 27.071a8.014 8.014 0 0 0-3.817 5.238A7.976 7.976 0 0 0 27 36.128 8 8 0 0 0 15.627 33.3 13 13 0 1 1 40 27z" data-original="#f4a93c"></path><path fill="#95ebfc" d="M59.594 34.281a6.988 6.988 0 0 0 .063-10.5 4.989 4.989 0 1 0-9.569-2.657A4.937 4.937 0 0 0 49 21a5 5 0 0 0-5 5 8 8 0 0 1 7.817 6.309 7.965 7.965 0 0 1 7.777 1.972z" data-original="#95ebfc"></path><path fill="#4fb5dc" d="M27 36.128a8 8 0 0 0-14.815 2.181A8 8 0 1 0 10 54h4a7.983 7.983 0 0 1 10.183-7.691 7.984 7.984 0 0 1 2.165-3.967A8.031 8.031 0 0 1 27 36.127z" data-original="#4fb5dc"></path><path fill="#5ed3f2" d="M47.29 48a7.965 7.965 0 0 0-7.473-1.689 8 8 0 0 0-13.469-3.967 7.989 7.989 0 0 1 9.835-10.034 8 8 0 0 1 15.634 0A8 8 0 1 1 54 48h-6.712z" data-original="#5ed3f2"></path><path fill="#95ebfc" d="M42 62a8 8 0 1 0-2.183-15.691 8 8 0 0 0-15.634 0A8 8 0 1 0 22 62z" data-original="#95ebfc"></path><path fill="#aef5ff" d="M42 46a7.984 7.984 0 0 0-2.183.309 8 8 0 0 0-7.478-6.294A13.989 13.989 0 0 0 28 50a14.468 14.468 0 0 0 6.831 12H42a8 8 0 0 0 0-16z" data-original="#aef5ff" class="hovered-path"></path><path fill="#75e2fc" d="M54 32a7.984 7.984 0 0 0-2.183.309 8 8 0 0 0-6.76-6.232A14.529 14.529 0 0 0 40 37a14.326 14.326 0 0 0 3.312 9.113A7.976 7.976 0 0 1 47.29 48H54a8 8 0 0 0 0-16z" data-original="#75e2fc"></path><g fill="#fad85d"><path d="m31 10-4-8-4 8zM10 31l-8-4 8-4zM41.849 17.808l2.829-8.486-8.486 2.829zM12.151 17.808 9.322 9.322l8.486 2.829z" fill="#fad85d" data-original="#fad85d"></path></g><path fill="#f6b940" d="M26.998 36.128v-.001zM27 14a13.044 13.044 0 0 0-2.548.253 13.386 13.386 0 0 0-3.743 17.8A7.983 7.983 0 0 1 27 36.127a7.977 7.977 0 0 1 9.185-3.818A8.014 8.014 0 0 1 40 27.071V27a13 13 0 0 0-13-13z" data-original="#f6b940"></path></g></svg>