<svg xmlns="http://www.w3.org/2000/svg" version="1.1" xmlns:xlink="http://www.w3.org/1999/xlink" xmlns:svgjs="http://svgjs.com/svgjs" width="512" height="512" x="0" y="0" viewBox="0 0 512 512" style="enable-background:new 0 0 512 512" xml:space="preserve" class=""><g><path fill="#e9edf5" d="M58.702 202.971a88.187 88.187 0 0 1-2.234-19.775c0-48.556 39.363-87.919 87.919-87.919s87.919 39.363 87.919 87.919-39.363 87.919-87.919 87.919a87.99 87.99 0 0 1-24.265-3.393c-4.056 27.291-27.58 48.231-56 48.231-31.272 0-56.623-25.351-56.623-56.623.001-29.443 22.475-53.629 51.203-56.359zM453.298 202.971a88.187 88.187 0 0 0 2.234-19.775c0-48.556-39.363-87.919-87.919-87.919s-87.919 39.363-87.919 87.919 39.363 87.919 87.919 87.919a87.978 87.978 0 0 0 24.264-3.393c4.056 27.291 27.58 48.231 56 48.231 31.272 0 56.623-25.351 56.623-56.623 0-29.443-22.474-53.629-51.202-56.359z" data-original="#e9edf5"></path><path fill="#dce1eb" d="M403.66 230.244c-9.302-52.017-45.511-94.819-93.659-113.461-18.566 16.12-30.307 39.895-30.307 66.413 0 48.557 39.363 87.919 87.919 87.919a87.978 87.978 0 0 0 24.264-3.393c4.056 27.291 27.58 48.231 56 48.231a56.356 56.356 0 0 0 33.446-10.941c-11.023-36.535-40.559-65.121-77.663-74.768zM64.123 315.953c28.42 0 51.944-20.939 56-48.231a87.98 87.98 0 0 0 24.265 3.393c48.556 0 87.919-39.363 87.919-87.919 0-26.518-11.741-50.293-30.307-66.413-48.148 18.643-84.358 61.444-93.659 113.461-37.104 9.646-66.64 38.232-77.662 74.767a56.346 56.346 0 0 0 33.444 10.942z" data-original="#dce1eb"></path><path fill="#f2f6fc" d="M453.479 356.723a80.156 80.156 0 0 0 2.521-20c0-44.183-35.817-80-80-80 0-66.274-53.726-120-120-120s-120 53.726-120 120c-44.183 0-80 35.817-80 80a80.11 80.11 0 0 0 2.521 20H37.5c-16.569 0-30 13.431-30 30 0 16.569 13.431 30 30 30h437c16.569 0 30-13.431 30-30 0-16.569-13.431-30-30-30z" data-original="#f2f6fc"></path><path fill="#e9edf5" d="M245.326 376.245C184.053 370.843 136 319.399 136 256.723c-44.183 0-80 35.817-80 80a80.11 80.11 0 0 0 2.521 20H37.5c-16.569 0-30 13.431-30 30s13.431 30 30 30h265.801c-26.625 0-49.312-16.856-57.975-40.478z" data-original="#e9edf5"></path><ellipse cx="176.355" cy="316.663" fill="#ffa1ac" rx="29.387" ry="23.403" data-original="#ffa1ac"></ellipse><ellipse cx="335.645" cy="316.663" fill="#ffa1ac" rx="29.387" ry="23.403" data-original="#ffa1ac"></ellipse><path fill="#495560" d="M279.694 298.682c0-14.643-10.608-16.019-23.693-16.019-13.086 0-23.694 1.376-23.694 16.019s10.608 26.513 23.694 26.513c13.085-.001 23.693-11.871 23.693-26.513z" data-original="#495560"></path><path d="M181.268 296.223a7.5 7.5 0 0 1-7.5-7.5v-12a7.5 7.5 0 0 1 15 0v12a7.5 7.5 0 0 1-7.5 7.5zM256 332.695c-17.2 0-31.193-15.258-31.193-34.013 0-23.519 21.859-23.519 31.193-23.519s31.193 0 31.193 23.519c0 18.754-13.993 34.013-31.193 34.013zm0-42.532c-15.539 0-16.193 2.611-16.193 8.519 0 10.484 7.264 19.013 16.193 19.013s16.193-8.529 16.193-19.013c0-5.908-.654-8.519-16.193-8.519zM330.732 296.223a7.5 7.5 0 0 1-7.5-7.5v-12a7.5 7.5 0 0 1 15 0v12a7.5 7.5 0 0 1-7.5 7.5z" fill="#B2BEB5" data-original="#000000"></path><path d="M474.5 349.223h-11.888c.59-4.127.888-8.306.888-12.5 0-5.076-.458-10.045-1.292-14.887 28.875-6.53 49.792-32.132 49.792-62.507a63.942 63.942 0 0 0-16.794-43.259c-8.902-9.732-20.457-16.413-33.139-19.278.641-4.491.964-9.04.964-13.596 0-52.614-42.805-95.419-95.419-95.419-33.128 0-63.716 17.159-81.078 45.108A128.326 128.326 0 0 0 256 129.223a127.344 127.344 0 0 0-30.514 3.693c-17.359-27.973-47.941-45.139-81.099-45.139-52.614 0-95.419 42.805-95.419 95.419 0 4.554.323 9.101.963 13.59a63.402 63.402 0 0 0-18.391 7.312 7.5 7.5 0 1 0 7.631 12.914 48.51 48.51 0 0 1 20.24-6.575 7.502 7.502 0 0 0 6.601-9.147 80.886 80.886 0 0 1-2.043-18.095c0-44.343 36.076-80.419 80.419-80.419a80.419 80.419 0 0 1 66.232 34.792c-45.831 17.514-79.054 60.748-81.918 111.956-34.743 2.884-63.777 26.162-75.101 57.793C31.245 302.489 15 282.763 15 259.329c0-8.632 2.269-17.118 6.56-24.54a7.5 7.5 0 0 0-12.985-7.509C2.965 236.983 0 248.065 0 259.329c0 30.374 20.917 55.976 49.792 62.507a87.605 87.605 0 0 0-1.292 14.887c0 4.194.298 8.373.888 12.5H37.5c-20.678 0-37.5 16.822-37.5 37.5s16.822 37.5 37.5 37.5h437c20.678 0 37.5-16.822 37.5-37.5s-16.822-37.5-37.5-37.5zm0 60h-437c-12.407 0-22.5-10.093-22.5-22.5s10.093-22.5 22.5-22.5h21.021a7.5 7.5 0 0 0 7.263-9.37 72.793 72.793 0 0 1-2.284-18.13c0-39.977 32.523-72.5 72.5-72.5a7.5 7.5 0 0 0 7.5-7.5c0-62.033 50.467-112.5 112.5-112.5 25.197 0 49.014 8.14 68.875 23.54a7.497 7.497 0 0 0 10.522-1.331 7.499 7.499 0 0 0-1.331-10.522c-10.073-7.811-21.048-13.961-32.653-18.387 14.929-21.618 39.596-34.745 66.2-34.745 44.343 0 80.419 36.076 80.419 80.419 0 6.108-.688 12.196-2.043 18.095a7.501 7.501 0 0 0 6.601 9.147c25.317 2.404 44.41 23.423 44.41 48.89 0 23.434-16.245 43.159-38.599 47.988-11.322-31.631-40.354-54.909-75.097-57.793-1.425-25.989-10.572-50.439-26.67-71.101a7.499 7.499 0 0 0-10.526-1.307 7.498 7.498 0 0 0-1.307 10.525c15.504 19.9 23.7 43.788 23.7 69.08a7.5 7.5 0 0 0 7.5 7.5c39.977 0 72.5 32.523 72.5 72.5 0 6.144-.769 12.243-2.284 18.13a7.502 7.502 0 0 0 7.263 9.37h21.02c12.407 0 22.5 10.093 22.5 22.5s-10.093 22.502-22.5 22.502z" fill="#B2BEB5" data-original="#000000"></path></g></svg>