<svg xmlns="http://www.w3.org/2000/svg" version="1.1" xmlns:xlink="http://www.w3.org/1999/xlink" xmlns:svgjs="http://svgjs.com/svgjs" width="512" height="512" x="0" y="0" viewBox="0 0 512 512" style="enable-background:new 0 0 512 512" xml:space="preserve" class=""><g><path fill="#ffb800" d="M427.6 253.4c0 57.6-28.7 108.6-72.7 139.3-6.2-1.9-12.3-4.5-18-8l-.1-.1c-12.5-7.6-26.4-11.3-40.4-11.3s-28 3.7-40.4 11.3c-24.8 15.2-56 15.2-80.8 0h-.1c-11.7-7.2-24.8-10.9-38.1-11.2-30.7-30.7-49.7-73.1-49.7-120 0-94.1 76.3-170.2 170.2-170.2s170.1 76 170.1 170.2z" data-original="#ffb800"></path><path d="M257.4 51.5c5.8 0 10.6-4.7 10.6-10.6V10.6C268 4.8 263.3 0 257.4 0s-10.6 4.7-10.6 10.6V41c0 5.8 4.8 10.5 10.6 10.5zM141.6 75c2.9 5.1 9.4 6.8 14.4 3.9s6.8-9.4 3.9-14.4L144.6 38c-2.9-5-9.4-6.8-14.4-3.9s-6.8 9.4-3.9 14.4zM40.8 141.8l26.9 15.5c5.1 2.9 11.5 1.2 14.4-3.9 2.9-5 1.2-11.5-3.9-14.4l-26.9-15.5c-5.1-2.9-11.5-1.2-14.4 3.9-2.9 5-1.2 11.5 3.9 14.4zM459.2 254.6c0 5.8 4.7 10.6 10.6 10.6h28.9c5.8 0 10.6-4.7 10.6-10.6s-4.7-10.6-10.6-10.6h-28.9c-5.8 0-10.6 4.8-10.6 10.6zM13.3 265.2H45c5.8 0 10.6-4.7 10.6-10.6S50.8 244 45 244H13.3c-5.8 0-10.6 4.7-10.6 10.6.1 5.8 4.8 10.6 10.6 10.6zM447.1 157.3l24.6-14.1c5.1-2.9 6.8-9.4 3.9-14.4-2.9-5.1-9.4-6.8-14.4-3.9L436.6 139c-5.1 2.9-6.8 9.4-3.9 14.4 2.9 5.1 9.3 6.8 14.4 3.9zM358.9 79c5 2.9 11.5 1.2 14.4-3.9L387.2 51c2.9-5 1.2-11.5-3.9-14.4-5-2.9-11.5-1.2-14.4 3.9L355 64.6c-2.9 5-1.1 11.5 3.9 14.4zM150.5 253.3c0-58.9 47.9-106.9 106.9-106.9 5.8 0 10.6-4.7 10.6-10.6s-4.7-10.6-10.6-10.6c-70.6 0-128 57.4-128 128 0 5.8 4.7 10.6 10.6 10.6 5.8.1 10.5-4.7 10.5-10.5z" fill="#000000" data-original="#000000"></path><path d="M7.8 393.5c28.4 17.3 63.6 17.3 92 0 10.3-6.4 22.4-9.7 34.9-9.7 34.1 0 40.6 22.8 80.9 22.8 15.4 0 31.6-4.2 45.9-13 19.7-12 47.1-13.5 69.9.1 6.2 3.8 13.1 6.9 20.5 9.1 23.9 7.1 49.7 3.9 70.9-8.9l.6-.3c22.6-13.8 50.1-12.1 69.7 0 5 3 11.5 1.5 14.5-3.5 3.1-5 1.5-11.5-3.5-14.5-25.7-15.8-61.5-18.3-91.4-.2-.2.1-.4.2-.5.3-9.6 5.8-20.4 9-31.5 9.6 36.3-33.9 57.4-81.5 57.4-131.8 0-99.7-81.1-180.7-180.7-180.7S76.7 153.7 76.7 253.4c0 40.9 13.6 79.8 38.6 111.4-9.4 2.1-18.4 5.7-26.6 10.7-21.6 13.2-48.4 13.2-69.9 0-5-3-11.5-1.5-14.5 3.5s-1.5 11.5 3.5 14.5zM257.5 93.7c88 0 159.6 71.6 159.6 159.6 0 50.2-23.7 97.4-63.8 127.4-14-5.3-53.5-35.4-102.8-5.3-46 28.2-69.7-9.6-108.8-12.5-28.3-29.7-43.8-68.5-43.8-109.6-.1-88 71.5-159.6 159.6-159.6zM504.2 428.2c-28.3-17.2-63.5-17.2-91.9.1-21.5 13.1-48.3 13.1-69.9-.1-28.3-17.2-63.5-17.2-91.8 0-21.6 13.1-48.3 13.1-69.9 0-28.3-17.2-63.5-17.2-91.8 0-21.6 13.1-48.3 13.1-69.9 0-5-3-11.5-1.5-14.5 3.5S3 443.2 8 446.2c28.3 17.3 63.5 17.3 91.9 0 21.5-13.1 48.3-13.1 69.9 0 28.3 17.2 63.5 17.2 91.8 0 21.5-13.1 48.3-13.1 70 0 28.1 17.1 63.2 17.4 92-.1 21.5-13.1 48.3-13.1 69.8 0 5 3 11.5 1.4 14.5-3.5 2.8-4.9 1.3-11.4-3.7-14.4zM412.2 481.1c-21.5 13.1-48.3 13.1-69.9-.1-28.3-17.2-63.5-17.2-91.8 0-21.5 13.1-48.3 13.1-69.9 0-28.3-17.2-63.5-17.2-92.2.2-4.8 3.2-6.1 9.6-3 14.4s9.5 6.3 14.4 3.3c21.5-13.1 48.3-13.1 69.9 0 28.3 17.2 63.5 17.3 91.8 0 21.5-13.1 48.3-13.1 70 0 28.3 17.3 63.5 17.2 92-.1 4.9-3.1 6.4-9.5 3.4-14.4-3.1-4.8-9.7-6.3-14.7-3.3z" fill="#000000" data-original="#000000"></path></g></svg>