<svg xmlns="http://www.w3.org/2000/svg" version="1.1" xmlns:xlink="http://www.w3.org/1999/xlink" xmlns:svgjs="http://svgjs.com/svgjs" width="512" height="512" x="0" y="0" viewBox="0 0 64 64" style="enable-background:new 0 0 512 512" xml:space="preserve" class="hovered-paths"><g><g data-name="16-Strom"><g fill="#7aaeef"><path d="M55.76 46.24c.62.61-.04 3.74-1.23 4.93a2.616 2.616 0 0 1-3.7-3.7c1.19-1.19 4.32-1.85 4.93-1.23zM44.76 54.24c.62.61-.04 3.74-1.23 4.93a2.616 2.616 0 0 1-3.7-3.7c1.19-1.19 4.32-1.85 4.93-1.23zM8.76 57.24c.62.61-.04 3.74-1.23 4.93a2.478 2.478 0 0 1-3.7 0 2.478 2.478 0 0 1 0-3.7c1.19-1.19 4.32-1.85 4.93-1.23zM26.76 57.24c.62.61-.04 3.74-1.23 4.93a2.616 2.616 0 0 1-3.7-3.7c1.19-1.19 4.32-1.85 4.93-1.23zM21.76 47.24c.62.61-.04 3.74-1.23 4.93a2.478 2.478 0 0 1-3.7 0 2.478 2.478 0 0 1 0-3.7c1.19-1.19 4.32-1.85 4.93-1.23zM35.76 44.24c.62.61-.04 3.74-1.23 4.93a2.616 2.616 0 0 1-3.7-3.7c1.19-1.19 4.32-1.85 4.93-1.23zM26.76 36.24c.62.61-.04 3.74-1.23 4.93a2.616 2.616 0 0 1-3.7-3.7c1.19-1.19 4.32-1.85 4.93-1.23z" fill="#7aaeef" data-original="#7aaeef"></path></g><path fill="#ffdc70" d="M12 30a6.812 6.812 0 0 0 3.87-1.19L16 29l-4 5h6L5 48l6-11H5l5-7 .07-.27A6.819 6.819 0 0 0 12 30zM50 29l-6 7h9L35 55l7-14h-7l6-8a7.993 7.993 0 0 0 7.61-5.54 6.494 6.494 0 0 0 1.52 1.35z" data-original="#ffdc70"></path><path fill="#b0afb5" d="M56.32 16.4A7 7 0 0 1 54 30a6.812 6.812 0 0 1-3.87-1.19 6.494 6.494 0 0 1-1.52-1.35A7.993 7.993 0 0 1 41 33c-4.42 0-7-2-8-6-1 4-3.58 6-8 6a7.993 7.993 0 0 1-7.61-5.54 6.494 6.494 0 0 1-1.52 1.35 6.933 6.933 0 0 1-5.8.92 7 7 0 0 1-1.3-12.94A4.982 4.982 0 0 1 12 8a4.912 4.912 0 0 1 3.09 1.1A7.9 7.9 0 0 1 15 8a7 7 0 0 1 13.6-2.32 4.952 4.952 0 0 1 8.8 0A7 7 0 0 1 51 8v.02a4.981 4.981 0 1 1 5.32 8.38z" data-original="#b0afb5"></path><path fill="#959499" d="M54 22a6.975 6.975 0 0 1-5.39-2.54A7.993 7.993 0 0 1 41 25c-4.42 0-7-2-8-6-1 4-3.58 6-8 6a7.993 7.993 0 0 1-7.61-5.54 6.992 6.992 0 0 1-11.123-.448A6.989 6.989 0 0 0 17.39 27.46 7.993 7.993 0 0 0 25 33c4.42 0 7-2 8-6 1 4 3.58 6 8 6a7.993 7.993 0 0 0 7.61-5.54 6.993 6.993 0 0 0 11.128-8.455A6.983 6.983 0 0 1 54 22z" data-original="#959499"></path><path fill="#f3b83a" d="M15.87 28.81a6.933 6.933 0 0 1-5.8.92L10 30l-1.479 2.071A6.968 6.968 0 0 0 12 33a7.089 7.089 0 0 0 .842-.052L16 29zM50.13 28.81a6.494 6.494 0 0 1-1.52-1.35A7.993 7.993 0 0 1 41 33l-2.1 2.8a11.536 11.536 0 0 0 2.1.2 7.936 7.936 0 0 0 3.864-1.008l3.617-4.22c.04-.106.094-.2.129-.312.022.027.049.051.072.078L50 29z" data-original="#f3b83a"></path><path fill="#e8e7f0" d="M48 11.588c.015.572.509.977.925 1.344a8.114 8.114 0 0 1 .822.836c.7.828 1.33 1.859 2.343 2.167a1.1 1.1 0 0 0 .78-.013 1.262 1.262 0 0 0 .4-.327 3.223 3.223 0 0 0 .5-3.251 4.282 4.282 0 0 0-3.124-2.287c-.931-.237-2.678.263-2.646 1.531zM44.5 6c-.044.364.272.652.543.889a7.917 7.917 0 0 1 1.038 1.1c.191.247.425.534.73.506a.581.581 0 0 0 .411-.275 1.543 1.543 0 0 0 .188-.483 2.174 2.174 0 0 0 .084-.635 1.582 1.582 0 0 0-.8-1.232c-.411-.247-2.082-.754-2.194.13z" data-original="#e8e7f0" class="hovered-path"></path><path fill="#6994d4" d="M55.53 49.17a2.478 2.478 0 0 1-3.7 0 2.641 2.641 0 0 1-.823-1.856c-.062.051-.123.1-.177.156a2.616 2.616 0 0 0 3.7 3.7A5.444 5.444 0 0 0 55.685 49c-.051.056-.102.117-.155.17zM44.53 57.17a2.478 2.478 0 0 1-3.7 0 2.641 2.641 0 0 1-.823-1.856c-.062.051-.123.1-.177.156a2.616 2.616 0 0 0 3.7 3.7A5.444 5.444 0 0 0 44.685 57c-.051.056-.102.117-.155.17zM26.53 60.17a2.478 2.478 0 0 1-3.7 0 2.641 2.641 0 0 1-.823-1.856c-.062.051-.123.1-.177.156a2.616 2.616 0 0 0 3.7 3.7A5.444 5.444 0 0 0 26.685 60c-.051.056-.102.117-.155.17zM8.53 60.17a2.478 2.478 0 0 1-3.7 0 2.641 2.641 0 0 1-.823-1.856c-.062.051-.123.1-.177.156a2.478 2.478 0 0 0 0 3.7 2.478 2.478 0 0 0 3.7 0A5.444 5.444 0 0 0 8.685 60c-.051.056-.102.117-.155.17zM21.53 50.17a2.478 2.478 0 0 1-3.7 0 2.641 2.641 0 0 1-.823-1.856c-.062.051-.123.1-.177.156a2.478 2.478 0 0 0 0 3.7 2.478 2.478 0 0 0 3.7 0A5.444 5.444 0 0 0 21.685 50c-.051.056-.102.117-.155.17zM35.53 47.17a2.478 2.478 0 0 1-3.7 0 2.641 2.641 0 0 1-.823-1.856c-.062.051-.123.1-.177.156a2.616 2.616 0 0 0 3.7 3.7A5.444 5.444 0 0 0 35.685 47c-.051.056-.102.117-.155.17zM26.53 39.17a2.478 2.478 0 0 1-3.7 0 2.641 2.641 0 0 1-.823-1.856c-.062.051-.123.1-.177.156a2.616 2.616 0 0 0 3.7 3.7 5.444 5.444 0 0 0 1.155-2.175c-.051.061-.102.122-.155.175z" data-original="#6994d4"></path></g></g></svg>